<?xml version="1.0" encoding="iso-8859-1"?>
<!-- Uploaded to: SVG Repo, www.svgrepo.com, Generator: SVG Repo Mixer Tools -->
<svg version="1.1" id="Layer_1" xmlns="http://www.w3.org/2000/svg" xmlns:xlink="http://www.w3.org/1999/xlink" 
	 viewBox="0 0 512 512" xml:space="preserve">
<polygon style="fill:#FF8C78;" points="50.479,390.68 50.479,198.28 8.018,198.28 213.245,10.155 418.472,198.28 376.01,198.28 
	376.01,390.68 "/>
<polygon style="fill:#DF7A6E;" points="8.018,198.28 50.479,198.28 50.479,390.68 85.334,390.68 85.334,127.407 "/>
<rect x="170.488" y="241.036" style="fill:#B2B2B2;" width="85.511" height="149.645"/>
<rect x="170.488" y="241.036" style="fill:#999999;" width="25.653" height="149.645"/>
<g>
	<rect x="281.653" y="241.036" style="fill:#6DDAE1;" width="68.409" height="51.307"/>
	<rect x="76.426" y="241.036" style="fill:#6DDAE1;" width="68.409" height="51.307"/>
</g>
<g>
	<polygon style="fill:#4FC4D3;" points="281.654,241.036 281.654,283.078 323.697,241.036 	"/>
	<polygon style="fill:#4FC4D3;" points="287.71,292.342 307.663,292.342 350.063,249.944 350.063,241.036 339.017,241.036 	"/>
	<polygon style="fill:#4FC4D3;" points="76.427,241.036 76.427,283.078 118.47,241.036 	"/>
	<polygon style="fill:#4FC4D3;" points="82.483,292.342 102.436,292.342 144.836,249.944 144.836,241.036 133.79,241.036 	"/>
</g>
<circle style="fill:#808080;" cx="307.306" cy="459.089" r="42.756"/>
<circle style="fill:#FFD791;" cx="307.306" cy="459.089" r="17.102"/>
<circle style="fill:#808080;" cx="136.284" cy="459.089" r="42.756"/>
<circle style="fill:#FFD791;" cx="136.284" cy="459.089" r="17.102"/>
<path d="M350.063,300.359c4.428,0,8.017-3.589,8.017-8.017v-51.307c0-4.427-3.588-8.017-8.017-8.017h-68.409
	c-4.428,0-8.017,3.589-8.017,8.017v51.307c0,4.427,3.588,8.017,8.017,8.017H350.063z M289.671,249.052h52.376v35.273h-52.376
	V249.052z"/>
<path d="M144.836,300.359c4.428,0,8.017-3.589,8.017-8.017v-51.307c0-4.427-3.588-8.017-8.017-8.017H76.427
	c-4.428,0-8.017,3.589-8.017,8.017v51.307c0,4.427,3.588,8.017,8.017,8.017H144.836z M84.444,249.052h52.376v35.273H84.444
	C84.444,284.326,84.444,249.052,84.444,249.052z"/>
<path d="M249.097,90.9l-86.415,86.415c-3.131,3.131-3.131,8.207,0,11.337c1.566,1.565,3.618,2.348,5.669,2.348
	s4.103-0.782,5.669-2.348l86.415-86.415c3.131-3.131,3.131-8.207,0-11.337C257.303,87.769,252.228,87.769,249.097,90.9z"/>
<path d="M220.193,172.627c0,13.851,11.268,25.119,25.119,25.119c13.851,0,25.119-11.268,25.119-25.119s-11.268-25.119-25.119-25.119
	C231.461,147.508,220.193,158.776,220.193,172.627z M254.397,172.627c0,5.01-4.076,9.086-9.086,9.086s-9.086-4.076-9.086-9.086
	s4.076-9.086,9.086-9.086S254.397,167.617,254.397,172.627z"/>
<path d="M181.178,83.374c-13.851,0-25.119,11.268-25.119,25.119s11.268,25.119,25.119,25.119c13.851,0,25.119-11.268,25.119-25.119
	S195.029,83.374,181.178,83.374z M181.178,117.579c-5.01,0-9.086-4.076-9.086-9.086c0-5.01,4.076-9.086,9.086-9.086
	c5.01,0,9.086,4.076,9.086,9.086C190.264,113.503,186.187,117.579,181.178,117.579z"/>
<path d="M503.983,49.17h-34.205c-3.807,0-7.089,2.677-7.853,6.406l-67.096,327.088h-10.802V206.297h34.445
	c3.306,0,6.272-2.029,7.472-5.11c1.198-3.081,0.382-6.582-2.054-8.816L218.662,4.245c-3.067-2.809-7.769-2.809-10.835,0L2.6,192.37
	c-2.436,2.234-3.253,5.735-2.054,8.816c1.199,3.082,4.167,5.11,7.473,5.11h34.445v124.526c0,4.427,3.588,8.017,8.017,8.017
	s8.017-3.589,8.017-8.017V198.28c0-4.427-3.588-8.017-8.017-8.017H28.627L213.245,21.03l184.617,169.233H376.01
	c-4.428,0-8.017,3.589-8.017,8.017v184.384H264.017v-51.841c0-4.427-3.588-8.017-8.017-8.017c-4.428,0-8.017,3.589-8.017,8.017
	v51.841h-69.478V249.052h69.478v39.015c0,4.427,3.588,8.017,8.017,8.017c4.428,0,8.017-3.589,8.017-8.017v-47.031
	c0-4.427-3.588-8.017-8.017-8.017h-85.511c-4.428,0-8.017,3.589-8.017,8.017v141.628H58.495v-9.086c0-4.427-3.588-8.017-8.017-8.017
	s-8.017,3.589-8.017,8.017v17.102c0,4.427,3.588,8.017,8.017,8.017h0.294h350.596c3.807,0,7.089-2.676,7.853-6.406l67.096-327.088
	h27.665c4.428,0,8.017-3.589,8.017-8.017S508.411,49.17,503.983,49.17z"/>
<path d="M307.307,408.317c-27.995,0-50.772,22.777-50.772,50.772s22.777,50.772,50.772,50.772s50.772-22.777,50.772-50.772
	S335.303,408.317,307.307,408.317z M307.307,493.828c-19.156,0-34.739-15.584-34.739-34.739s15.583-34.739,34.739-34.739
	s34.739,15.584,34.739,34.739S326.462,493.828,307.307,493.828z"/>
<path d="M307.307,433.97c-13.851,0-25.119,11.268-25.119,25.119s11.268,25.119,25.119,25.119s25.119-11.268,25.119-25.119
	S321.158,433.97,307.307,433.97z M307.307,468.175c-5.01,0-9.086-4.076-9.086-9.086c0-5.01,4.076-9.086,9.086-9.086
	s9.086,4.076,9.086,9.086C316.393,464.099,312.316,468.175,307.307,468.175z"/>
<path d="M136.285,408.317c-27.995,0-50.772,22.777-50.772,50.772s22.777,50.772,50.772,50.772s50.772-22.777,50.772-50.772
	S164.28,408.317,136.285,408.317z M136.285,493.828c-19.156,0-34.739-15.584-34.739-34.739s15.583-34.739,34.739-34.739
	s34.739,15.584,34.739,34.739S155.439,493.828,136.285,493.828z"/>
<path d="M136.285,433.97c-13.851,0-25.119,11.268-25.119,25.119s11.268,25.119,25.119,25.119s25.119-11.268,25.119-25.119
	S150.136,433.97,136.285,433.97z M136.285,468.175c-5.01,0-9.086-4.076-9.086-9.086c0-5.01,4.076-9.086,9.086-9.086
	s9.086,4.076,9.086,9.086C145.37,464.099,141.294,468.175,136.285,468.175z"/>
</svg>