<svg width="32" height="32" viewBox="0 0 32 32" fill="none" xmlns="http://www.w3.org/2000/svg">
<g id="Icon" clip-path="url(#clip0_3_1258)">
<g id="Union">
<path fill-rule="evenodd" clip-rule="evenodd" d="M2.66667 15.9998H5.62956V26.3702C5.62956 27.156 5.94173 27.9097 6.49739 28.4653C7.05305 29.021 7.80669 29.3332 8.59252 29.3332H23.4073C24.1932 29.3332 24.9468 29.021 25.5025 28.4653C26.0581 27.9097 26.3703 27.156 26.3703 26.3702V15.9998H26.3704H29.3333L16 2.6665L2.66667 15.9998Z" fill="white"/>
<path d="M5.62956 15.9998H6.62956C6.62956 15.4476 6.18184 14.9998 5.62956 14.9998V15.9998ZM2.66667 15.9998L1.95956 15.2927C1.67356 15.5787 1.58801 16.0088 1.74279 16.3825C1.89757 16.7562 2.2622 16.9998 2.66667 16.9998L2.66667 15.9998ZM6.49739 28.4653L7.2045 27.7582L6.49739 28.4653ZM25.5025 28.4653L24.7954 27.7582L24.7954 27.7582L25.5025 28.4653ZM26.3703 15.9998V14.9998C25.818 14.9998 25.3703 15.4476 25.3703 15.9998H26.3703ZM29.3333 15.9998V16.9998C29.7378 16.9998 30.1024 16.7562 30.2572 16.3825C30.412 16.0088 30.3264 15.5787 30.0404 15.2927L29.3333 15.9998ZM16 2.6665L16.7071 1.9594C16.3166 1.56887 15.6834 1.56887 15.2929 1.9594L16 2.6665ZM5.62956 14.9998H2.66667V16.9998H5.62956V14.9998ZM4.62956 15.9998V26.3702H6.62956V15.9998H4.62956ZM4.62956 26.3702C4.62956 27.4213 5.04708 28.4292 5.79028 29.1724L7.2045 27.7582C6.83637 27.3901 6.62956 26.8908 6.62956 26.3702H4.62956ZM5.79028 29.1724C6.53348 29.9156 7.54148 30.3332 8.59252 30.3332V28.3332C8.07191 28.3332 7.57262 28.1264 7.2045 27.7582L5.79028 29.1724ZM8.59252 30.3332H23.4073V28.3332H8.59252V30.3332ZM23.4073 30.3332C24.4584 30.3332 25.4664 29.9156 26.2096 29.1724L24.7954 27.7582C24.4272 28.1264 23.9279 28.3332 23.4073 28.3332V30.3332ZM26.2096 29.1724C26.9528 28.4292 27.3703 27.4213 27.3703 26.3702H25.3703C25.3703 26.8908 25.1635 27.3901 24.7954 27.7582L26.2096 29.1724ZM27.3703 26.3702V15.9998H25.3703V26.3702H27.3703ZM26.3704 14.9998H26.3703V16.9998H26.3704V14.9998ZM29.3333 14.9998H26.3704V16.9998H29.3333V14.9998ZM15.2929 3.37361L28.6262 16.7069L30.0404 15.2927L16.7071 1.9594L15.2929 3.37361ZM3.37377 16.7069L16.7071 3.37361L15.2929 1.9594L1.95956 15.2927L3.37377 16.7069Z" fill="white"/>
</g>
<path id="Vector" d="M12 18.0002L14.6667 20.6668L20 15.3335" stroke="#7065F0" stroke-width="2" stroke-linecap="round" stroke-linejoin="round"/>
</g>
<defs>
<clipPath id="clip0_3_1258">
<rect width="32" height="32" fill="white"/>
</clipPath>
</defs>
</svg>
